<svg width="40" height="40" viewBox="0 0 40 40" fill="none" xmlns="http://www.w3.org/2000/svg">
<path d="M30 6.25H10C7.92893 6.25 6.25 7.92893 6.25 10V30C6.25 32.0711 7.92893 33.75 10 33.75H30C32.0711 33.75 33.75 32.0711 33.75 30V10C33.75 7.92893 32.0711 6.25 30 6.25Z" stroke="white" stroke-width="1.5" stroke-linejoin="round"/>
<path d="M27.5 11.25H12.5C11.8096 11.25 11.25 11.8096 11.25 12.5V27.5C11.25 28.1904 11.8096 28.75 12.5 28.75H27.5C28.1904 28.75 28.75 28.1904 28.75 27.5V12.5C28.75 11.8096 28.1904 11.25 27.5 11.25Z" stroke="white" stroke-width="1.5" stroke-linejoin="round"/>
<path d="M20 6.25V3.75M26.25 6.25V3.75M13.75 6.25V3.75M20 36.25V33.75M26.25 36.25V33.75M13.75 36.25V33.75M33.75 20H36.25M33.75 26.25H36.25M33.75 13.75H36.25M3.75 20H6.25M3.75 26.25H6.25M3.75 13.75H6.25" stroke="white" stroke-width="1.5" stroke-linecap="round" stroke-linejoin="round"/>
</svg>
