<svg width="14" height="18" viewBox="0 0 14 18" fill="none" xmlns="http://www.w3.org/2000/svg">
<path d="M13.5938 7.5H8.125C7.62772 7.5 7.15081 7.30246 6.79917 6.95083C6.44754 6.59919 6.25 6.12228 6.25 5.625V0.15625C6.25 0.11481 6.23354 0.0750672 6.20424 0.0457646C6.17493 0.016462 6.13519 0 6.09375 0H2.5C1.83696 0 1.20107 0.263392 0.732233 0.732233C0.263392 1.20107 0 1.83696 0 2.5V15C0 15.663 0.263392 16.2989 0.732233 16.7678C1.20107 17.2366 1.83696 17.5 2.5 17.5H11.25C11.913 17.5 12.5489 17.2366 13.0178 16.7678C13.4866 16.2989 13.75 15.663 13.75 15V7.65625C13.75 7.61481 13.7335 7.57507 13.7042 7.54576C13.6749 7.51646 13.6352 7.5 13.5938 7.5Z" fill="white" fill-opacity="0.4"/>
</svg>
