<svg width="18" height="18" viewBox="0 0 18 18" fill="none" xmlns="http://www.w3.org/2000/svg">
<path d="M10.7058 0L13.3558 3.71333L15.1033 3.1175L16.6983 7.78333H17.5V17.7833H0V7.78333H0.425V7.775L0.965 7.78L10.7058 0ZM6.58083 7.78333H14.9375L14.0733 5.25583L12.805 5.66167L6.58083 7.78333ZM5.2825 6.46417L11.7083 4.275L10.3717 2.4L5.2825 6.46417ZM3.33333 9.45H1.66667V11.1167C2.10869 11.1167 2.53262 10.9411 2.84518 10.6285C3.15774 10.316 3.33333 9.89203 3.33333 9.45ZM11.6667 12.7833C11.6667 12.4003 11.5912 12.021 11.4446 11.6672C11.2981 11.3133 11.0832 10.9918 10.8124 10.7209C10.5416 10.4501 10.22 10.2353 9.86616 10.0887C9.51229 9.94211 9.13302 9.86667 8.75 9.86667C8.36698 9.86667 7.98771 9.94211 7.63384 10.0887C7.27997 10.2353 6.95844 10.4501 6.68761 10.7209C6.41677 10.9918 6.20193 11.3133 6.05535 11.6672C5.90877 12.021 5.83333 12.4003 5.83333 12.7833C5.83333 13.5569 6.14062 14.2988 6.68761 14.8457C7.23459 15.3927 7.97645 15.7 8.75 15.7C9.52355 15.7 10.2654 15.3927 10.8124 14.8457C11.3594 14.2988 11.6667 13.5569 11.6667 12.7833ZM15.8333 16.1167V14.45C15.3913 14.45 14.9674 14.6256 14.6548 14.9382C14.3423 15.2507 14.1667 15.6746 14.1667 16.1167H15.8333ZM14.1667 9.45C14.1667 9.89203 14.3423 10.316 14.6548 10.6285C14.9674 10.9411 15.3913 11.1167 15.8333 11.1167V9.45H14.1667ZM1.66667 16.1167H3.33333C3.33333 15.6746 3.15774 15.2507 2.84518 14.9382C2.53262 14.6256 2.10869 14.45 1.66667 14.45V16.1167Z" fill="white" fill-opacity="0.4"/>
</svg>
