<svg width="18" height="17" viewBox="0 0 18 17" fill="none" xmlns="http://www.w3.org/2000/svg">
<path d="M2.60417 0C1.9135 0 1.25112 0.274367 0.762743 0.762743C0.274367 1.25112 0 1.9135 0 2.60417V9.0625C0 9.75317 0.274367 10.4155 0.762743 10.9039C1.25112 11.3923 1.9135 11.6667 2.60417 11.6667H9.335L7.89667 10.2283C7.64274 9.97438 7.50008 9.62996 7.50008 9.27083C7.50008 8.91171 7.64274 8.56729 7.89667 8.31333L9.195 7.015L8.75 6.57L7.9725 7.3475C7.92413 7.39587 7.86671 7.43424 7.80351 7.46042C7.74031 7.4866 7.67257 7.50007 7.60417 7.50007C7.53576 7.50007 7.46803 7.4866 7.40483 7.46042C7.34163 7.43424 7.2842 7.39587 7.23583 7.3475C7.18746 7.29913 7.14909 7.24171 7.12292 7.17851C7.09674 7.11531 7.08326 7.04757 7.08326 6.97917C7.08326 6.91076 7.09674 6.84303 7.12292 6.77983C7.14909 6.71663 7.18746 6.6592 7.23583 6.61083L8.01333 5.83333L7.23583 5.05583C7.13814 4.95815 7.08326 4.82565 7.08326 4.6875C7.08326 4.54935 7.13814 4.41685 7.23583 4.31917C7.33352 4.22148 7.46601 4.1666 7.60417 4.1666C7.74232 4.1666 7.87481 4.22148 7.9725 4.31917L8.75 5.09667L9.5275 4.31917C9.62519 4.22148 9.75768 4.1666 9.89583 4.1666C10.034 4.1666 10.1665 4.22148 10.2642 4.31917C10.3619 4.41685 10.4167 4.54935 10.4167 4.6875C10.4167 4.82565 10.3619 4.95815 10.2642 5.05583L9.48667 5.83333L10.005 6.35167C10.3022 6.22922 10.6332 6.21647 10.939 6.31571C11.2447 6.41494 11.5051 6.61969 11.6737 6.89333C11.6941 6.77176 11.7568 6.66133 11.8509 6.58168C11.945 6.50203 12.0642 6.45832 12.1875 6.45833H14.0625C14.2006 6.45833 14.3331 6.51321 14.4308 6.61088C14.5285 6.70856 14.5833 6.84103 14.5833 6.97917C14.5833 7.1173 14.5285 7.24978 14.4308 7.34745C14.3331 7.44513 14.2006 7.5 14.0625 7.5H12.1875C12.0621 7.5 11.9467 7.45542 11.8567 7.38125C11.8858 7.55875 11.88 7.74125 11.8387 7.91667H13.75C14.8583 7.91667 15.8742 8.31 16.6667 8.96417V2.60417C16.6667 1.9135 16.3923 1.25112 15.9039 0.762743C15.4155 0.274367 14.7532 0 14.0625 0H2.60417ZM2.6525 4.31917C2.70087 4.27079 2.75829 4.23241 2.82149 4.20623C2.88469 4.18005 2.95243 4.16657 3.02083 4.16657C3.08924 4.16657 3.15698 4.18005 3.22018 4.20623C3.28338 4.23241 3.3408 4.27079 3.38917 4.31917L4.16667 5.09667L4.94417 4.31917C5.04185 4.22148 5.17435 4.1666 5.3125 4.1666C5.45065 4.1666 5.58315 4.22148 5.68083 4.31917C5.77852 4.41685 5.8334 4.54935 5.8334 4.6875C5.8334 4.82565 5.77852 4.95815 5.68083 5.05583L4.90333 5.83333L5.68083 6.61083C5.7292 6.6592 5.76757 6.71663 5.79375 6.77983C5.81993 6.84303 5.8334 6.91076 5.8334 6.97917C5.8334 7.04757 5.81993 7.11531 5.79375 7.17851C5.76757 7.24171 5.7292 7.29913 5.68083 7.3475C5.63246 7.39587 5.57504 7.43424 5.51184 7.46042C5.44864 7.4866 5.38091 7.50007 5.3125 7.50007C5.24409 7.50007 5.17636 7.4866 5.11316 7.46042C5.04996 7.43424 4.99254 7.39587 4.94417 7.3475L4.16667 6.57L3.38917 7.3475C3.29148 7.44519 3.15899 7.50007 3.02083 7.50007C2.88268 7.50007 2.75019 7.44519 2.6525 7.3475C2.55481 7.24981 2.49993 7.11732 2.49993 6.97917C2.49993 6.84101 2.55481 6.70852 2.6525 6.61083L3.43 5.83333L2.6525 5.05583C2.60412 5.00747 2.56574 4.95005 2.53956 4.88685C2.51338 4.82365 2.4999 4.75591 2.4999 4.6875C2.4999 4.61909 2.51338 4.55135 2.53956 4.48815C2.56574 4.42495 2.60412 4.36753 2.6525 4.31917ZM10.8892 7.9725C10.9869 7.87481 11.0417 7.74232 11.0417 7.60417C11.0417 7.46601 10.9869 7.33352 10.8892 7.23583C10.7915 7.13814 10.659 7.08326 10.5208 7.08326C10.3827 7.08326 10.2502 7.13814 10.1525 7.23583L8.48583 8.9025C8.43745 8.95086 8.39908 9.00829 8.3729 9.07149C8.34671 9.13469 8.33324 9.20243 8.33324 9.27083C8.33324 9.33924 8.34671 9.40698 8.3729 9.47018C8.39908 9.53338 8.43745 9.5908 8.48583 9.63917L10.1525 11.3058C10.2502 11.4035 10.3827 11.4584 10.5208 11.4584C10.659 11.4584 10.7915 11.4035 10.8892 11.3058C10.9869 11.2081 11.0417 11.0757 11.0417 10.9375C11.0417 10.7993 10.9869 10.6669 10.8892 10.5692L10.1117 9.79167H13.75C14.2669 9.79173 14.773 9.93972 15.2085 10.2181C15.644 10.4966 15.9907 10.8938 16.2077 11.3629C16.4247 11.832 16.503 12.3535 16.4332 12.8656C16.3634 13.3778 16.1485 13.8593 15.8139 14.2532C15.4793 14.6472 15.0389 14.9372 14.5448 15.089C14.0507 15.2407 13.5235 15.2479 13.0254 15.1097C12.5274 14.9715 12.0792 14.6936 11.734 14.3089C11.3888 13.9243 11.1608 13.4488 11.0771 12.9388C11.0661 12.8712 11.0419 12.8065 11.0059 12.7484C10.9699 12.6902 10.9228 12.6397 10.8673 12.5997C10.8117 12.5597 10.7489 12.5311 10.6823 12.5154C10.6157 12.4997 10.5467 12.4973 10.4792 12.5083C10.4116 12.5193 10.347 12.5435 10.2888 12.5795C10.2306 12.6155 10.1801 12.6626 10.1401 12.7181C10.1002 12.7737 10.0715 12.8365 10.0558 12.9031C10.0402 12.9697 10.0378 13.0387 10.0487 13.1063C10.3387 14.8892 11.885 16.25 13.75 16.25C14.7446 16.25 15.6984 15.8549 16.4016 15.1516C17.1049 14.4484 17.5 13.4946 17.5 12.5C17.5 11.5054 17.1049 10.5516 16.4016 9.84835C15.6984 9.14509 14.7446 8.75 13.75 8.75H10.1117L10.8892 7.9725Z" fill="white" fill-opacity="0.4"/>
</svg>
