<svg width="18" height="18" viewBox="0 0 18 18" fill="none" xmlns="http://www.w3.org/2000/svg">
<path d="M8.74924 5.85938C8.13118 5.85938 7.52699 6.04265 7.01308 6.38603C6.49918 6.72941 6.09864 7.21747 5.86212 7.78849C5.62559 8.35951 5.56371 8.98784 5.68429 9.59403C5.80487 10.2002 6.10249 10.757 6.53953 11.1941C6.97657 11.6311 7.53339 11.9288 8.13958 12.0493C8.74578 12.1699 9.37411 12.108 9.94513 11.8715C10.5161 11.635 11.0042 11.2344 11.3476 10.7205C11.691 10.2066 11.8742 9.60244 11.8742 8.98438C11.8718 8.15633 11.5417 7.36291 10.9562 6.7774C10.3707 6.19188 9.57728 5.86185 8.74924 5.85938ZM15.4961 8.98438C15.4945 9.27637 15.4731 9.56793 15.4321 9.85703L17.334 11.3461C17.4168 11.4145 17.4727 11.5101 17.4915 11.6159C17.5103 11.7216 17.4909 11.8307 17.4367 11.9234L15.6375 15.0297C15.5828 15.1216 15.4975 15.1914 15.3964 15.2266C15.2954 15.2618 15.1852 15.2603 15.0852 15.2223L12.8489 14.3238C12.3832 14.6824 11.8736 14.98 11.3324 15.2094L10.9981 17.5836C10.9794 17.6899 10.9243 17.7865 10.8423 17.8567C10.7603 17.927 10.6564 17.9666 10.5485 17.9688H6.95002C6.84403 17.9667 6.74186 17.9288 6.6602 17.8611C6.57854 17.7935 6.52221 17.7002 6.50041 17.5965L6.16604 15.2223C5.62341 14.9956 5.11344 14.6975 4.64963 14.3359L2.4133 15.2344C2.31334 15.2724 2.20316 15.274 2.10213 15.2389C2.00111 15.2037 1.91572 15.1341 1.86096 15.0422L0.0617417 11.9363C0.00758462 11.8436 -0.0118174 11.7345 0.00700275 11.6288C0.0258229 11.523 0.0816389 11.4274 0.164476 11.359L2.06643 9.86992C2.02586 9.57644 2.00446 9.28064 2.00237 8.98438C2.00399 8.69238 2.0254 8.40082 2.06643 8.11172L0.164476 6.62266C0.0816389 6.55426 0.0258229 6.45863 0.00700275 6.35287C-0.0118174 6.2471 0.00758462 6.13809 0.0617417 6.04531L1.86096 2.93906C1.91566 2.84711 2.00103 2.77738 2.10205 2.74216C2.20308 2.70694 2.31329 2.70847 2.4133 2.74648L4.64963 3.64492C5.1153 3.28633 5.6249 2.98874 6.16604 2.75938L6.50041 0.385156C6.51913 0.278808 6.57419 0.18226 6.6562 0.112009C6.73821 0.0417592 6.84206 0.00216748 6.95002 0H10.5485C10.6545 0.0020631 10.7566 0.0399966 10.8383 0.107608C10.9199 0.175219 10.9763 0.268515 10.9981 0.372266L11.3324 2.74648C11.8758 2.97304 12.3864 3.27111 12.8508 3.63281L15.0852 2.73438C15.1851 2.69632 15.2953 2.69473 15.3963 2.72989C15.4974 2.76504 15.5828 2.83468 15.6375 2.92656L17.4367 6.03281C17.4909 6.12559 17.5103 6.2346 17.4915 6.34037C17.4727 6.44613 17.4168 6.54176 17.334 6.61016L15.4321 8.09922C15.4726 8.39257 15.494 8.68824 15.4961 8.98438Z" fill="white" fill-opacity="0.4"/>
</svg>
