<svg width="17" height="14" viewBox="0 0 17 14" fill="none" xmlns="http://www.w3.org/2000/svg">
<path d="M7.45833 8.04167L6.3125 6.89583C6.14583 6.72917 5.94444 6.64583 5.70833 6.64583C5.47222 6.64583 5.27083 6.72917 5.10417 6.89583C4.9375 7.0625 4.85417 7.26389 4.85417 7.5C4.85417 7.73611 4.9375 7.9375 5.10417 8.10417L6.875 9.875C7.04167 10.0417 7.23611 10.125 7.45833 10.125C7.68055 10.125 7.875 10.0417 8.04167 9.875L11.5625 6.35417C11.7292 6.1875 11.8125 5.98611 11.8125 5.75C11.8125 5.51389 11.7292 5.3125 11.5625 5.14583C11.3958 4.97917 11.1944 4.89583 10.9583 4.89583C10.7222 4.89583 10.5208 4.97917 10.3542 5.14583L7.45833 8.04167ZM1.66667 3.33333H15V1.66667H1.66667V3.33333ZM1.66667 13.3333C1.20833 13.3333 0.816111 13.1703 0.49 12.8442C0.163889 12.5181 0.000555555 12.1256 0 11.6667V1.66667C0 1.20833 0.163333 0.816111 0.49 0.49C0.816667 0.163889 1.20889 0.000555556 1.66667 0H15C15.4583 0 15.8508 0.163333 16.1775 0.49C16.5042 0.816666 16.6672 1.20889 16.6667 1.66667V11.6667C16.6667 12.125 16.5036 12.5175 16.1775 12.8442C15.8514 13.1708 15.4589 13.3339 15 13.3333H1.66667Z" fill="white" fill-opacity="0.4"/>
</svg>
